HIERARCHY
ROOT Pelvis
{
	OFFSET 0.000000 0.000000 0.000000
	CHANNELS 6 Xposition Yposition Zposition Xrotation Yrotation Zrotation
	JOINT LeftUpLeg_virtual
	{
		OFFSET 0.000000 0.000000 0.000000
		CHANNELS 3 Xrotation Yrotation Zrotation
		JOINT LeftUpLeg
		{
			OFFSET 18.735201 -5.666702 -4.541200
			CHANNELS 3 Xrotation Yrotation Zrotation
			JOINT LeftLeg
			{
				OFFSET -0.021200 -31.938179 0.493100
				CHANNELS 3 Xrotation Yrotation Zrotation
				JOINT LeftFoot
				{
					OFFSET 0.021200 -31.938179 -4.336299
					CHANNELS 3 Xrotation Yrotation Zrotation
					JOINT LeftToeBase
					{
						OFFSET 0.943001 -26.722000 15.023500
						CHANNELS 3 Xrotation Yrotation Zrotation
						End Site
						{
							OFFSET 0 0 0
						}
					}
				}
			}
		}
	}
	JOINT RightUpLeg_virtual
	{
		OFFSET 0.000000 0.000000 0.000000
		CHANNELS 3 Xrotation Yrotation Zrotation
		JOINT RightUpLeg
		{
			OFFSET -18.735201 -5.666702 -4.541200
			CHANNELS 3 Xrotation Yrotation Zrotation
			JOINT RightLeg
			{
				OFFSET 0.018946 -31.938133 0.493100
				CHANNELS 3 Xrotation Yrotation Zrotation
				JOINT RightFoot
				{
					OFFSET -0.018946 -31.938126 -4.336299
					CHANNELS 3 Xrotation Yrotation Zrotation
					JOINT RightToeBase
					{
						OFFSET -0.943001 -26.722004 15.023500
						CHANNELS 3 Xrotation Yrotation Zrotation
						End Site
						{
							OFFSET 0 0 0
						}
					}
				}
			}
		}
	}
	JOINT Hips_virtual
	{
		OFFSET 0.000000 0.000000 0.000000
		CHANNELS 3 Xrotation Yrotation Zrotation
		JOINT Hips
		{
			OFFSET -0.000000 -0.000000 -0.000000
			CHANNELS 3 Xrotation Yrotation Zrotation
			JOINT Spine
			{
				OFFSET 0.000000 10.199997 -0.299500
				CHANNELS 3 Xrotation Yrotation Zrotation
				JOINT Spine1
				{
					OFFSET 0.000000 11.900002 -1.516600
					CHANNELS 3 Xrotation Yrotation Zrotation
					JOINT Spine2
					{
						OFFSET 0.000000 13.600006 -2.842500
						CHANNELS 3 Xrotation Yrotation Zrotation
						JOINT Neck_virtual
						{
							OFFSET 0.000000 0.000000 0.000000
							CHANNELS 3 Xrotation Yrotation Zrotation
							JOINT Neck
							{
								OFFSET 0.000000 9.624100 -2.890100
								CHANNELS 3 Xrotation Yrotation Zrotation
								JOINT Head
								{
									OFFSET 0.000000 14.068802 -1.351900
									CHANNELS 3 Xrotation Yrotation Zrotation
									End Site
									{
										OFFSET 0 0 0
									}
								}
							}
						}
						JOINT LeftShoulder_virtual
						{
							OFFSET 0.000000 0.000000 0.000000
							CHANNELS 3 Xrotation Yrotation Zrotation
							JOINT LeftShoulder
							{
								OFFSET 15.263000 10.923401 -0.547700
								CHANNELS 3 Xrotation Yrotation Zrotation
								JOINT LeftArm
								{
									OFFSET 25.438599 -2.830597 -13.032500
									CHANNELS 3 Xrotation Yrotation Zrotation
									JOINT LeftForeArm
									{
										OFFSET 29.960503 0.000000 0.000000
										CHANNELS 3 Xrotation Yrotation Zrotation
										JOINT LeftHand
										{
											OFFSET 27.849251 0.000000 0.000000
											CHANNELS 3 Xrotation Yrotation Zrotation
											End Site
											{
												OFFSET 0 0 0
											}
										}
									}
								}
							}
						}
						JOINT RightShoulder_virtual
						{
							OFFSET 0.000000 0.000000 0.000000
							CHANNELS 3 Xrotation Yrotation Zrotation
							JOINT RightShoulder
							{
								OFFSET -15.263000 10.923401 -0.547700
								CHANNELS 3 Xrotation Yrotation Zrotation
								JOINT RightArm
								{
									OFFSET -25.438599 -2.830597 -13.032500
									CHANNELS 3 Xrotation Yrotation Zrotation
									JOINT RightForeArm
									{
										OFFSET -29.960503 0.000000 0.000000
										CHANNELS 3 Xrotation Yrotation Zrotation
										JOINT RightHand
										{
											OFFSET -27.849251 0.000000 0.000000
											CHANNELS 3 Xrotation Yrotation Zrotation
											End Site
											{
												OFFSET 0 0 0
											}
										}
									}
								}
							}
						}
					}
				}
			}
		}
	}
}
MOTION
Frames: 11
Frame Time: 0.03333333
0.941639 71.159088 124.841911 0.000000 0.000000 0.000000 7.572136 -28.635083 -0.142108 24.223044 20.954081 2.250414 8.492473 -3.334682 3.141700 8.153616 -16.245081 -32.280000 0.000000 0.000000 0.000000 7.846019 -28.276548 -2.460762 -82.693346 7.102949 -24.097783 45.290947 15.792215 28.661017 27.032188 1.954594 -1.541193 0.000000 0.000000 0.000000 6.618875 -26.354661 -1.626601 -0.558470 0.103743 0.134943 -3.987716 -12.952401 0.860030 11.147442 -1.874428 3.246691 0.000000 0.000000 0.000000 4.485439 -1.531809 3.864735 4.719592 -2.947833 1.248431 0.000000 0.000000 0.000000 12.698600 -2.139374 4.274521 -16.920849 -18.926553 -29.962807 -24.978488 10.299642 -3.316917 -88.444010 -62.900913 -62.283484 0.000000 0.000000 0.000000 5.142304 -0.822803 3.641236 -2.192099 5.188808 -6.655460 -25.202865 16.209250 14.841026 37.801655 67.901588 -19.291400 0.000000 0.000000 0.000000 
0.656339 69.762093 129.216187 0.000000 0.000000 0.000000 10.771487 -33.554588 -1.490809 29.881876 26.549855 1.176500 0.106569 -4.821920 2.886810 9.129799 -17.381062 -33.352186 0.000000 0.000000 0.000000 10.247047 -33.154739 -4.320399 -85.901308 4.943605 -20.039003 47.571619 14.376565 30.063030 16.839073 -0.562953 -2.116842 0.000000 0.000000 0.000000 10.208105 -31.615197 -2.628722 -0.497701 0.086280 0.057121 -7.528246 -13.619294 -0.424048 12.152286 -3.869437 5.810002 0.000000 0.000000 0.000000 5.999429 -3.766517 6.108373 3.424287 -3.241524 1.709582 0.000000 0.000000 0.000000 13.033254 -4.315004 6.281236 -18.478860 -24.847911 -29.908490 -25.363706 0.562380 -10.779024 -58.080179 -55.265694 -32.372563 0.000000 0.000000 0.000000 7.226788 -2.998325 6.229732 -3.194938 0.377091 -2.872403 -18.957096 0.224499 11.628937 31.614173 63.536394 -10.944951 0.000000 0.000000 0.000000 
0.176672 68.803246 134.091827 0.000000 0.000000 0.000000 13.757300 -38.124443 -2.653142 31.608586 32.274194 1.940917 -1.423820 -5.615178 2.478696 16.232062 -18.778509 -29.407188 0.000000 0.000000 0.000000 12.850347 -37.883371 -5.396093 -88.129200 3.985269 -15.193066 51.143401 12.209266 29.108668 5.119296 -1.669057 -1.781175 0.000000 0.000000 0.000000 14.015231 -36.725804 -2.700506 -0.481709 0.099558 0.011138 -10.831506 -12.869983 -1.825853 13.263701 -5.161178 8.129331 0.000000 0.000000 0.000000 7.681185 -5.273563 8.181802 2.333670 -3.629504 2.150557 0.000000 0.000000 0.000000 13.387314 -5.818692 8.040727 -18.913306 -30.609985 -27.286442 -27.821437 -8.350486 -21.070428 -42.050627 -43.629107 -17.440941 0.000000 0.000000 0.000000 9.269775 -4.453341 8.551349 -3.503505 -3.454254 -0.201571 -16.142486 -13.065775 10.640223 31.471790 64.599799 -9.659854 0.000000 0.000000 0.000000 
-0.321037 68.428154 139.459015 0.000000 0.000000 0.000000 16.219927 -43.387223 -3.301637 29.622319 37.270952 4.591896 3.175028 -6.656001 2.236605 29.289641 -20.478444 -22.351934 0.000000 0.000000 0.000000 15.514503 -43.273691 -5.346439 -88.304367 3.765551 -9.341455 53.877697 9.485791 26.636674 -3.015050 -0.998918 0.934019 0.000000 0.000000 0.000000 17.440026 -42.362630 -1.787778 -0.547605 0.169449 -0.012802 -13.564722 -11.018675 -3.034486 14.259033 -5.905284 9.930435 0.000000 0.000000 0.000000 9.010318 -6.241925 9.832356 1.597524 -4.052621 2.555813 0.000000 0.000000 0.000000 13.521059 -6.782056 9.284409 -17.854589 -35.567930 -22.521792 -32.556496 -13.792495 -33.239611 -34.405384 -35.044372 -11.393054 0.000000 0.000000 0.000000 10.777264 -5.361147 10.391059 -3.089303 -5.613844 0.951547 -15.373904 -21.839622 11.430369 33.884056 67.744255 -12.162397 0.000000 0.000000 0.000000 
-0.990218 68.844101 145.158112 0.000000 0.000000 0.000000 17.946834 -49.349391 -3.183812 25.454524 40.236088 8.488182 11.091315 -8.557611 2.734838 43.655062 -21.766204 -14.611981 0.000000 0.000000 0.000000 17.847477 -49.104853 -4.331101 -86.295028 3.649984 -3.197894 54.956863 6.543724 23.281598 -6.035283 0.731813 5.807501 0.000000 0.000000 0.000000 19.866377 -48.225681 -0.362159 -0.673119 0.256677 -0.016891 -15.552486 -8.749890 -3.701709 14.876217 -6.348702 11.015207 0.000000 0.000000 0.000000 9.732297 -6.924801 10.814289 1.280734 -4.425589 2.896555 0.000000 0.000000 0.000000 13.305579 -7.436790 9.816392 -15.307893 -39.086949 -16.118499 -37.416029 -15.057485 -44.586983 -30.722461 -31.901676 -9.544887 0.000000 0.000000 0.000000 11.342672 -5.996550 11.545279 -2.104712 -5.650959 0.432789 -16.017080 -26.000447 13.605057 35.665130 68.644357 -15.255549 0.000000 0.000000 0.000000 
-2.093872 70.316917 151.351837 0.000000 0.000000 0.000000 18.715253 -55.128943 -2.428553 19.660689 40.536654 13.025668 21.469755 -10.766364 4.658242 54.944395 -21.247071 -7.391524 0.000000 0.000000 0.000000 19.237913 -54.726115 -2.799259 -81.622352 3.684996 3.308250 54.110610 3.342754 19.247661 -4.671990 2.666685 10.886523 0.000000 0.000000 0.000000 20.778713 -53.645487 0.826346 -0.805348 0.372154 -0.002156 -16.730439 -6.720516 -3.821014 15.128312 -6.738430 11.366125 0.000000 0.000000 0.000000 9.855464 -7.514553 11.090007 1.385494 -4.720231 3.157100 0.000000 0.000000 0.000000 12.667074 -8.003056 9.622039 -11.757016 -40.811214 -9.043007 -40.751822 -13.549503 -53.124679 -28.661728 -32.483061 -9.318957 0.000000 0.000000 0.000000 10.769681 -6.637174 12.011995 -0.654330 -4.090605 -1.097580 -17.609916 -26.593797 16.737423 32.688496 64.922505 -15.057442 0.000000 0.000000 0.000000 
-3.576742 72.568260 157.626099 0.000000 0.000000 0.000000 18.222275 -59.738877 -1.391706 11.466274 38.924872 18.312690 35.842893 -11.425733 8.246537 57.291494 -17.509086 -1.134463 0.000000 0.000000 0.000000 19.246273 -59.177893 -1.478863 -74.593527 3.699410 8.975415 51.374169 -0.616551 14.755703 -3.285015 2.761012 13.798878 0.000000 0.000000 0.000000 19.866377 -57.842823 1.129006 -0.887708 0.451688 -0.033286 -17.099411 -5.393700 -3.600349 14.883979 -7.173973 11.004746 0.000000 0.000000 0.000000 9.524556 -8.117995 10.725391 1.814726 -4.902137 3.320722 0.000000 0.000000 0.000000 11.663080 -8.554715 8.897240 -8.027153 -40.620354 -2.375625 -42.558584 -11.989825 -58.187099 -27.301089 -34.638778 -9.633106 0.000000 0.000000 0.000000 9.266555 -7.350814 11.813623 1.054825 -1.436084 -2.686613 -19.841239 -24.938610 19.402228 27.170064 57.353863 -13.657803 0.000000 0.000000 0.000000 
-5.486495 75.488586 163.509003 0.000000 0.000000 0.000000 16.683125 -62.549575 -0.220985 1.066022 35.447917 24.130519 52.309755 -9.598015 12.174003 49.032811 -12.617688 4.286785 0.000000 0.000000 0.000000 17.579420 -61.863742 -0.876055 -66.634451 3.821016 12.631464 48.141823 -5.102503 9.824980 -4.924227 -0.096198 13.516628 0.000000 0.000000 0.000000 17.482320 -60.326737 0.667145 -0.877351 0.504018 -0.058729 -16.588352 -4.945743 -3.262806 14.236429 -7.634105 10.093770 0.000000 0.000000 0.000000 9.055529 -8.623806 9.901081 2.458462 -4.948930 3.367752 0.000000 0.000000 0.000000 10.423879 -9.061836 7.854992 -4.814261 -38.659933 3.331720 -43.729166 -12.172510 -60.094231 -26.067222 -37.338677 -10.047493 0.000000 0.000000 0.000000 7.255300 -8.022352 11.055917 2.576799 1.194512 -3.600116 -23.463899 -22.114037 20.274334 22.426385 50.315381 -14.090184 0.000000 0.000000 0.000000 
-7.458522 78.488541 169.076965 0.000000 0.000000 0.000000 14.465454 -63.460981 0.882882 -10.792180 30.460922 29.879550 67.086084 -6.408927 14.449663 33.522312 -9.063366 8.559526 0.000000 0.000000 0.000000 14.733886 -62.698978 -0.511633 -58.661216 4.845251 14.629613 44.917875 -8.891941 4.534025 -9.426547 -4.432999 11.065574 0.000000 0.000000 0.000000 14.445649 -60.966678 0.243265 -0.812735 0.488183 -0.078307 -15.202418 -5.375602 -2.919318 13.400300 -8.003022 8.820637 0.000000 0.000000 0.000000 8.625873 -8.929494 8.806437 3.075831 -4.878866 3.260007 0.000000 0.000000 0.000000 9.104236 -9.375922 6.745581 -2.576042 -35.121253 7.758899 -45.502816 -14.665364 -59.136734 -24.734512 -41.002855 -10.542093 0.000000 0.000000 0.000000 5.147374 -8.479688 9.828767 3.567620 2.719725 -3.426943 -29.357867 -18.307197 19.197321 19.368571 47.911981 -16.665059 0.000000 0.000000 0.000000 
-9.282991 80.756615 174.025330 0.000000 0.000000 0.000000 11.973140 -62.555271 1.960868 -22.866027 24.532183 35.110922 76.644121 -3.667269 14.793428 16.210786 -7.617969 10.163667 0.000000 0.000000 0.000000 11.864046 -61.819653 0.239205 -51.644652 6.858964 14.365056 42.683611 -10.727972 -0.422895 -15.879351 -7.909032 8.549248 0.000000 0.000000 0.000000 11.463465 -60.066179 0.549777 -0.739746 0.427253 -0.024416 -12.854788 -6.435927 -2.437390 12.538813 -8.119420 7.305457 0.000000 0.000000 0.000000 8.287418 -8.898215 7.540098 3.443748 -4.709866 2.984009 0.000000 0.000000 0.000000 7.983073 -9.339362 5.722105 -1.308342 -30.099042 11.338041 -47.982226 -18.809147 -55.330813 -23.921744 -47.554721 -11.791161 0.000000 0.000000 0.000000 3.451110 -8.521161 8.249937 3.810835 2.484413 -3.030270 -38.411416 -12.417251 17.028966 19.174170 52.169094 -21.844750 0.000000 0.000000 0.000000 
-10.502113 82.037766 178.360657 0.000000 0.000000 0.000000 9.240450 -60.583757 2.617987 -32.978923 18.375973 39.037612 78.917406 -2.848688 14.326423 3.523480 -7.189677 7.352707 0.000000 0.000000 0.000000 9.002841 -59.942102 1.085811 -46.737779 9.386659 11.188743 43.164320 -9.682299 -3.913328 -20.258259 -8.484512 8.361879 0.000000 0.000000 0.000000 8.625282 -58.303779 1.249487 -0.685395 0.334134 0.063762 -9.689614 -7.828392 -1.495086 11.736625 -7.956658 5.638875 0.000000 0.000000 0.000000 7.941812 -8.472878 6.115820 3.354887 -4.473236 2.567747 0.000000 0.000000 0.000000 7.100916 -8.871541 4.782151 -1.054477 -23.675457 14.500842 -50.820801 -22.852261 -48.872319 -24.926422 -58.507441 -14.966302 0.000000 0.000000 0.000000 2.545581 -8.112412 6.399292 3.299097 -0.118553 -3.264903 -51.279083 -3.956785 16.203394 24.438381 62.431706 -32.009446 0.000000 0.000000 0.000000 
